<mxfile host="Electron" modified="2024-12-20T05:58:45.094Z" agent="Mozilla/5.0 (Windows NT 10.0; Win64; x64) AppleWebKit/537.36 (KHTML, like Gecko) draw.io/22.1.21 Chrome/120.0.6099.109 Electron/28.1.0 Safari/537.36" etag="6TKwWTJ75B9eoGwvpMIn" version="22.1.21" type="device">
  <diagram name="Page-1" id="_2P68Cu7tyAJzyz3SQy1">
    <mxGraphModel dx="2140" dy="1721" grid="1" gridSize="10" guides="1" tooltips="1" connect="1" arrows="1" fold="1" page="1" pageScale="1" pageWidth="850" pageHeight="1100" math="0" shadow="0">
      <root>
        <mxCell id="0" />
        <mxCell id="1" parent="0" />
        <mxCell id="Uc0HZHCOOJQI7KXAPkYN-2" value="" style="edgeStyle=orthogonalEdgeStyle;rounded=0;orthogonalLoop=1;jettySize=auto;html=1;" edge="1" parent="1" source="Uc0HZHCOOJQI7KXAPkYN-3" target="Uc0HZHCOOJQI7KXAPkYN-8">
          <mxGeometry relative="1" as="geometry" />
        </mxCell>
        <mxCell id="Uc0HZHCOOJQI7KXAPkYN-3" value="Hiển thị&amp;nbsp; danh sách Tên Website" style="rounded=1;whiteSpace=wrap;html=1;fontSize=12;glass=0;strokeWidth=1;shadow=0;" vertex="1" parent="1">
          <mxGeometry x="160" y="80" width="120" height="40" as="geometry" />
        </mxCell>
        <mxCell id="Uc0HZHCOOJQI7KXAPkYN-4" value="" style="edgeStyle=orthogonalEdgeStyle;rounded=0;orthogonalLoop=1;jettySize=auto;html=1;" edge="1" parent="1" source="Uc0HZHCOOJQI7KXAPkYN-5" target="Uc0HZHCOOJQI7KXAPkYN-3">
          <mxGeometry relative="1" as="geometry" />
        </mxCell>
        <mxCell id="Uc0HZHCOOJQI7KXAPkYN-5" value="" style="strokeWidth=2;html=1;shape=mxgraph.flowchart.start_2;whiteSpace=wrap;" vertex="1" parent="1">
          <mxGeometry x="204" y="-10" width="66" height="60" as="geometry" />
        </mxCell>
        <mxCell id="Uc0HZHCOOJQI7KXAPkYN-6" value="" style="strokeWidth=2;html=1;shape=mxgraph.flowchart.start_2;whiteSpace=wrap;" vertex="1" parent="1">
          <mxGeometry x="340" y="610" width="66" height="60" as="geometry" />
        </mxCell>
        <mxCell id="Uc0HZHCOOJQI7KXAPkYN-7" value="" style="edgeStyle=orthogonalEdgeStyle;rounded=0;orthogonalLoop=1;jettySize=auto;html=1;" edge="1" parent="1" source="Uc0HZHCOOJQI7KXAPkYN-8" target="Uc0HZHCOOJQI7KXAPkYN-13">
          <mxGeometry relative="1" as="geometry" />
        </mxCell>
        <mxCell id="Uc0HZHCOOJQI7KXAPkYN-8" value="Xóa" style="rounded=1;whiteSpace=wrap;html=1;fontSize=12;glass=0;strokeWidth=1;shadow=0;" vertex="1" parent="1">
          <mxGeometry x="160" y="180" width="120" height="40" as="geometry" />
        </mxCell>
        <mxCell id="Uc0HZHCOOJQI7KXAPkYN-9" style="edgeStyle=orthogonalEdgeStyle;rounded=0;orthogonalLoop=1;jettySize=auto;html=1;entryX=0.25;entryY=0;entryDx=0;entryDy=0;" edge="1" parent="1" source="Uc0HZHCOOJQI7KXAPkYN-13" target="Uc0HZHCOOJQI7KXAPkYN-15">
          <mxGeometry relative="1" as="geometry" />
        </mxCell>
        <mxCell id="Uc0HZHCOOJQI7KXAPkYN-10" value="xóa" style="edgeLabel;html=1;align=center;verticalAlign=middle;resizable=0;points=[];" vertex="1" connectable="0" parent="Uc0HZHCOOJQI7KXAPkYN-9">
          <mxGeometry x="-0.2511" y="5" relative="1" as="geometry">
            <mxPoint as="offset" />
          </mxGeometry>
        </mxCell>
        <mxCell id="Uc0HZHCOOJQI7KXAPkYN-11" style="edgeStyle=orthogonalEdgeStyle;rounded=0;orthogonalLoop=1;jettySize=auto;html=1;entryX=1;entryY=0;entryDx=0;entryDy=0;" edge="1" parent="1" source="Uc0HZHCOOJQI7KXAPkYN-13" target="Uc0HZHCOOJQI7KXAPkYN-16">
          <mxGeometry relative="1" as="geometry" />
        </mxCell>
        <mxCell id="Uc0HZHCOOJQI7KXAPkYN-12" value="không" style="edgeLabel;html=1;align=center;verticalAlign=middle;resizable=0;points=[];" vertex="1" connectable="0" parent="Uc0HZHCOOJQI7KXAPkYN-11">
          <mxGeometry x="-0.4261" y="-5" relative="1" as="geometry">
            <mxPoint as="offset" />
          </mxGeometry>
        </mxCell>
        <mxCell id="Uc0HZHCOOJQI7KXAPkYN-13" value="Xác nhận" style="strokeWidth=2;html=1;shape=mxgraph.flowchart.decision;whiteSpace=wrap;" vertex="1" parent="1">
          <mxGeometry x="170" y="260" width="100" height="100" as="geometry" />
        </mxCell>
        <mxCell id="Uc0HZHCOOJQI7KXAPkYN-14" value="" style="edgeStyle=orthogonalEdgeStyle;rounded=0;orthogonalLoop=1;jettySize=auto;html=1;" edge="1" parent="1" source="Uc0HZHCOOJQI7KXAPkYN-15" target="Uc0HZHCOOJQI7KXAPkYN-19">
          <mxGeometry relative="1" as="geometry" />
        </mxCell>
        <mxCell id="Uc0HZHCOOJQI7KXAPkYN-15" value="Xóa" style="rounded=1;whiteSpace=wrap;html=1;fontSize=12;glass=0;strokeWidth=1;shadow=0;" vertex="1" parent="1">
          <mxGeometry x="40" y="400" width="120" height="40" as="geometry" />
        </mxCell>
        <mxCell id="Uc0HZHCOOJQI7KXAPkYN-16" value="không xóa" style="rounded=1;whiteSpace=wrap;html=1;fontSize=12;glass=0;strokeWidth=1;shadow=0;" vertex="1" parent="1">
          <mxGeometry x="300" y="390" width="120" height="40" as="geometry" />
        </mxCell>
        <mxCell id="Uc0HZHCOOJQI7KXAPkYN-17" style="edgeStyle=orthogonalEdgeStyle;rounded=0;orthogonalLoop=1;jettySize=auto;html=1;entryX=0.75;entryY=0;entryDx=0;entryDy=0;exitX=1;exitY=0.5;exitDx=0;exitDy=0;exitPerimeter=0;" edge="1" parent="1" source="Uc0HZHCOOJQI7KXAPkYN-19" target="Uc0HZHCOOJQI7KXAPkYN-25">
          <mxGeometry relative="1" as="geometry" />
        </mxCell>
        <mxCell id="Uc0HZHCOOJQI7KXAPkYN-18" value="thất bại" style="edgeLabel;html=1;align=center;verticalAlign=middle;resizable=0;points=[];" vertex="1" connectable="0" parent="Uc0HZHCOOJQI7KXAPkYN-17">
          <mxGeometry x="-0.4739" y="4" relative="1" as="geometry">
            <mxPoint as="offset" />
          </mxGeometry>
        </mxCell>
        <mxCell id="Uc0HZHCOOJQI7KXAPkYN-19" value="" style="strokeWidth=2;html=1;shape=mxgraph.flowchart.decision;whiteSpace=wrap;" vertex="1" parent="1">
          <mxGeometry x="40" y="510" width="90" height="90" as="geometry" />
        </mxCell>
        <mxCell id="Uc0HZHCOOJQI7KXAPkYN-20" style="edgeStyle=orthogonalEdgeStyle;rounded=0;orthogonalLoop=1;jettySize=auto;html=1;entryX=0;entryY=0.75;entryDx=0;entryDy=0;" edge="1" parent="1" source="Uc0HZHCOOJQI7KXAPkYN-21" target="Uc0HZHCOOJQI7KXAPkYN-24">
          <mxGeometry relative="1" as="geometry" />
        </mxCell>
        <mxCell id="Uc0HZHCOOJQI7KXAPkYN-21" value="Thông báo thành công" style="rounded=1;whiteSpace=wrap;html=1;fontSize=12;glass=0;strokeWidth=1;shadow=0;" vertex="1" parent="1">
          <mxGeometry x="-70" y="610" width="120" height="40" as="geometry" />
        </mxCell>
        <mxCell id="Uc0HZHCOOJQI7KXAPkYN-22" style="edgeStyle=orthogonalEdgeStyle;rounded=0;orthogonalLoop=1;jettySize=auto;html=1;entryX=0.158;entryY=0.075;entryDx=0;entryDy=0;entryPerimeter=0;exitX=0;exitY=0.5;exitDx=0;exitDy=0;exitPerimeter=0;" edge="1" parent="1" source="Uc0HZHCOOJQI7KXAPkYN-19" target="Uc0HZHCOOJQI7KXAPkYN-21">
          <mxGeometry relative="1" as="geometry" />
        </mxCell>
        <mxCell id="Uc0HZHCOOJQI7KXAPkYN-23" value="thành công" style="edgeLabel;html=1;align=center;verticalAlign=middle;resizable=0;points=[];" vertex="1" connectable="0" parent="Uc0HZHCOOJQI7KXAPkYN-22">
          <mxGeometry x="-0.2744" relative="1" as="geometry">
            <mxPoint as="offset" />
          </mxGeometry>
        </mxCell>
        <mxCell id="Uc0HZHCOOJQI7KXAPkYN-24" value="lấy dữ liệu Tên Website mới" style="rounded=1;whiteSpace=wrap;html=1;fontSize=12;glass=0;strokeWidth=1;shadow=0;" vertex="1" parent="1">
          <mxGeometry x="50" y="700" width="120" height="40" as="geometry" />
        </mxCell>
        <mxCell id="Uc0HZHCOOJQI7KXAPkYN-25" value="Thông báo lỗi" style="rounded=1;whiteSpace=wrap;html=1;fontSize=12;glass=0;strokeWidth=1;shadow=0;" vertex="1" parent="1">
          <mxGeometry x="130" y="610" width="120" height="40" as="geometry" />
        </mxCell>
        <mxCell id="Uc0HZHCOOJQI7KXAPkYN-26" style="edgeStyle=orthogonalEdgeStyle;rounded=0;orthogonalLoop=1;jettySize=auto;html=1;entryX=1;entryY=0.5;entryDx=0;entryDy=0;entryPerimeter=0;exitX=1;exitY=0.5;exitDx=0;exitDy=0;" edge="1" parent="1" source="Uc0HZHCOOJQI7KXAPkYN-16" target="Uc0HZHCOOJQI7KXAPkYN-6">
          <mxGeometry relative="1" as="geometry" />
        </mxCell>
        <mxCell id="Uc0HZHCOOJQI7KXAPkYN-27" style="edgeStyle=orthogonalEdgeStyle;rounded=0;orthogonalLoop=1;jettySize=auto;html=1;entryX=0;entryY=0.5;entryDx=0;entryDy=0;entryPerimeter=0;" edge="1" parent="1" source="Uc0HZHCOOJQI7KXAPkYN-25" target="Uc0HZHCOOJQI7KXAPkYN-6">
          <mxGeometry relative="1" as="geometry" />
        </mxCell>
        <mxCell id="Uc0HZHCOOJQI7KXAPkYN-28" style="edgeStyle=orthogonalEdgeStyle;rounded=0;orthogonalLoop=1;jettySize=auto;html=1;entryX=0.5;entryY=1;entryDx=0;entryDy=0;entryPerimeter=0;" edge="1" parent="1" source="Uc0HZHCOOJQI7KXAPkYN-24" target="Uc0HZHCOOJQI7KXAPkYN-6">
          <mxGeometry relative="1" as="geometry" />
        </mxCell>
      </root>
    </mxGraphModel>
  </diagram>
</mxfile>
